<?xml version="1.0" encoding="UTF-8"?>
<svg width="512" height="512" version="1.1" viewBox="0 0 135.47 135.47" xml:space="preserve"
  xmlns="http://www.w3.org/2000/svg">
  <g>
    <path
      d="m62.613 1.8523v42.992h-3.376v-10.292l-10.313 0.23197c-5.6841-7.5e-5 -10.292 4.6078-10.292 10.292v10.757h10.292v42.119h10.313v-42.119h14.143v-53.98z"
      fill="#335159" />
    <path
      d="m31.194 73.055v0.0217c-2.8178-0.07745-5.544 1.0043-7.5422 2.9926-1.9787 1.9796-3.0657 4.6797-3.0107 7.4781h-0.0036v42.53h14.079l7.4275 7.4274 7.4275-7.4274h9.6656v-10.492h-27.832v-32.038h3.3765v28.468h27.832v14.063h10.767v-14.063h24.047v-24.695h-10.766v14.202h-13.281v-28.467h-10.767v28.467h-17.066v-28.467h-10.766z"
      fill="#335159" />
    <path
      d="m87.136 34.784a10.292 10.292 0 0 0-10.292 10.292v10.757h10.292v3.3647h-24.523v10.493h34.835v-3.5869-6.906-24.413h-10.313z"
      fill="#335159" />
    <rect x="35.055" y="59.197" width="10.493" height="10.493" fill="#83a517" />
    <path d="m94.082 73.055v3.3652l-17.337-2.57e-4v10.839l3.3647-2.58e-4v-3.3652l17.337 2.58e-4v-10.839z"
      fill="#83a517" />
    <rect x="20.638" y="59.197" width="10.493" height="10.493" fill="#83a517" />
    <rect x="90.602" y="115.58" width="10.493" height="10.493" fill="#83a517" />
    <rect x="76.745" y="115.58" width="10.493" height="10.493" fill="#83a517" />
    <path
      d="m74.798 2.3756v10.706c17.226 3.346 29.662 18.408 29.662 35.928v77.069h10.493v-77.069c-2.2e-4 -23.339-17.074-43.168-40.155-46.633z"
      fill="#83a517" />
    <path
      d="m61.195 2.3223c-23.261 3.2879-40.554 23.195-40.557 46.687v6.8239h10.493v-6.8239c0.012267-17.664 12.659-32.798 30.064-35.978v-10.708z"
      fill="#83a517" />
  </g>
</svg>