<svg viewBox="0 0 24 24" fill="#000" xmlns="http://www.w3.org/2000/svg">
  <g>
    <path fill-rule="evenodd"
      d="M9 0a5.5 5.5 0 1 0 0 11A5.5 5.5 0 0 0 9 0ZM5.5 5.5a3.5 3.5 0 1 1 7 0 3.5 3.5 0 0 1-7 0Z" />
    <path
      d="M15.5 0a1 1 0 1 0 0 2 3.5 3.5 0 1 1 0 7 1 1 0 1 0 0 2 5.5 5.5 0 1 0 0-11ZM19 14a1 1 0 0 1 1.4-.5A6 6 0 0 1 24 19v2a1 1 0 1 1-2 0v-2c0-1.6-1-3-2.4-3.7a1 1 0 0 1-.5-1.3ZM6 13a6 6 0 0 0-6 6v2a1 1 0 1 0 2 0v-2a4 4 0 0 1 4-4h6a4 4 0 0 1 4 4v2a1 1 0 1 0 2 0v-2a6 6 0 0 0-6-6H6Z" />
  </g>
</svg>